<?xml version="1.0" encoding="utf-8"?>
<!-- Generator: Adobe Illustrator 22.0.0, SVG Export Plug-In . SVG Version: 6.00 Build 0)  -->
<svg version="1.1" id="Layer_1" xmlns="http://www.w3.org/2000/svg" xmlns:xlink="http://www.w3.org/1999/xlink" x="0px" y="0px"
	 viewBox="0 0 209.7 205.2" style="enable-background:new 0 0 209.7 205.2;" xml:space="preserve">
<style type="text/css">
	.st0{fill:none;stroke:#414042;stroke-width:2.5;stroke-miterlimit:10;}
	.st1{fill:#EF4142;}
	.st2{fill:none;stroke:#414042;stroke-width:3.7;stroke-miterlimit:10;}
	.st3{fill:#FFFFFF;}
	.st4{clip-path:url(#SVGID_2_);}
	.st5{fill:#F05455;}
	.st6{fill:#C64445;}
	.st7{fill:#C2288F;}
	.st8{fill:#1D5194;}
	.st9{fill:url(#SVGID_3_);}
	.st10{opacity:0.29;}
	.st11{fill:#C8C8C8;}
	.st12{fill:#525352;}
	.st13{fill:#EF4142;stroke:#414042;stroke-width:3.7;stroke-miterlimit:10;}
	.st14{fill:#050606;}
	.st15{fill:none;stroke:#000000;stroke-width:2;stroke-linejoin:bevel;stroke-miterlimit:10;}
	.st16{fill:#EF4142;stroke:#000000;stroke-width:2;stroke-linejoin:bevel;stroke-miterlimit:10;}
	.st17{fill:none;}
	.st18{fill:#FEBE85;}
	.st19{fill:#153E35;}
	.st20{fill:#F58220;}
	.st21{fill:#FBAE40;}
	.st22{fill:#404242;}
	.st23{fill:#6FC067;}
</style>
<g>
	<path class="st5" d="M199.9,102.6c0,50.5-42.5,91.4-95,91.4c-19.9,0-38.3-5.9-53.6-15.9c-3.4-2.2-8.6,16.6-23.8,15.9
		c0,0,9.3-27.5,7.1-29.8c-15.4-16.2-24.8-37.9-24.8-61.6c0-50.5,42.5-91.4,95-91.4S199.9,52.1,199.9,102.6z"/>
</g>
<g>
	<g>
		<path class="st3" d="M103.1,151.8c-5.4,0-10.1-1.2-14.2-3.5c-4-2.3-7.4-5.5-10.1-9.4c-2.7-3.9-4.7-8.5-6.1-13.7
			c-1.3-5.2-2-10.6-2-16.3c0-3.8,0.3-7.9,0.9-12.2c0.6-4.3,1.6-8.5,2.9-12.6c1.3-4.1,2.9-8,4.9-11.8c2-3.7,4.2-7,6.8-9.9
			c2.6-2.8,5.5-5.1,8.8-6.8c3.2-1.7,6.8-2.5,10.8-2.5c3.2,0,6.2,0.6,9,1.9c2.8,1.2,5.2,3,7.2,5.2c2,2.2,3.6,4.9,4.8,8.1
			c1.1,3.2,1.7,6.7,1.7,10.6c0,4.2-0.9,8.5-2.6,12.7c-1.8,4.2-4.2,8.3-7.3,12c-3.1,3.8-6.8,7.1-11.1,10.1c-4.3,2.9-9.3,5-9.3,5
			c-2.5,1-3.9,3.4-2.9,5.3c0,0,0,0,0.8,1.2c0.8,1.2,1.7,2.2,2.5,2.9c0.9,0.7,1.8,1.2,2.7,1.4c0.9,0.3,2,0.4,3.1,0.4
			c3.4,0,7.1-0.8,10.9-2.5c3.8-1.6,7.5-3.7,11.2-6.2c3.6-2.5,7-5.2,10.2-8.1c3.2-2.9,4.8-4.6,4.8-4.6c1.9-2,4.8-1.9,6.5,0.2l4.8,6
			c1.7,2.1,1.6,5.6-0.2,7.6l-9.1,9.4c-2,1.9-5.4,4.8-7.6,6.5c0,0-1.2,1-4.1,3c-2.8,2-5.8,3.8-9,5.3c-3.1,1.5-6.4,2.8-9.7,3.7
			C109.9,151.4,106.5,151.8,103.1,151.8z M91.7,100.2c0,1.8,1.9,3,4.3,2.7c0,0,0,0,2.4-1.3c2.4-1.3,4.7-2.9,6.8-4.9
			c2.1-2,3.9-4.1,5.3-6.5c1.4-2.3,2.2-4.6,2.2-6.8c0-3.2-0.6-8.1-3.2-9.9c-2.2-1.6-5.9-0.4-8.1,1c-1.8,1.1-3.2,2.5-4.4,4.3
			c-1.2,1.7-2.1,3.7-2.8,6c-0.7,2.2-1.3,4.5-1.6,6.7c-0.4,2.3-0.6,4.5-0.7,6.6C91.7,100.2,91.7,100.2,91.7,100.2z"/>
	</g>
	<g>
		<path class="st3" d="M89.5,107.2c-9.3,1.9-42.2,3.5-45.6,8.1c-1.3,1.8,2.3,13.1,2.3,13.1c0.8,2.6,3.7,4.4,6.4,3.9
			c0,0,32-5.9,38.7-10.5"/>
	</g>
	<g>
		<g>
			<g>
				<path class="st3" d="M158.9,135.8c-0.5,2.7-3.1,4.3-5.8,3.6l-3.1-0.8c-2.7-0.7-4.4-3.5-3.9-6.2l2.6-13.7
					c0.5-2.7-1.3-4.9-4.1-4.8l-13,0.2c-2.7,0-5-2.2-5.1-4.9l-0.1-5.6c0-2.7,2.2-5,4.9-5.1l29.5-0.5c2.7,0,4.6,2.1,4.1,4.8
					L158.9,135.8z"/>
			</g>
		</g>
	</g>
</g>
</svg>
